<svg xmlns="http://www.w3.org/2000/svg" width="70.107" height="70.454" viewBox="276 85 70.107 70.454"><path d="M341.117 151.017h-16.794l7.075-7.074c.848.19 1.726.297 2.632.297a12.082 12.082 0 0 0 12.077-12.077c-.005-6.67-5.407-12.073-12.077-12.077a12.02 12.02 0 0 0-4.245.772 12.12 12.12 0 0 0-.406.16l-8.648-8.646 3.71-3.721c2.31-2.513 3.688-5.795 3.688-9.394v-.071a14.316 14.316 0 0 0-14.112-14.184.056.056 0 0 0 .002 0c-.009 0-.054-.002-.12-.002a5.863 5.863 0 0 0-.027 0 13.792 13.792 0 0 0-7.485 2.179 13.526 13.526 0 0 0-1.854 1.431l-9.978 9.974-15.164 1.783a4.62 4.62 0 0 0-1.641.492 3.83 3.83 0 0 0-.545.356 2.984 2.984 0 0 0-.799.93c-.261.464-.419 1.003-.405 1.53a3.574 3.574 0 0 0 .203 1.142c.21.595.563 1.085.954 1.504a6.8 6.8 0 0 0 .123.128l29.4 29.4a4.59 4.59 0 0 0 1.496 1.024c.356.143.75.235 1.19.252a3.807 3.807 0 0 0 .088.002h.07a2.513 2.513 0 0 0 .14-.004c.887-.05 1.775-.56 2.251-1.2a3.851 3.851 0 0 0 .554-.984 5.01 5.01 0 0 0 .287-1.197l-2.2-.26 2.204.254 1.743-15.12 3.094-3.104 8.009 8.008a12.037 12.037 0 0 0-3.623 7.777 12.228 12.228 0 0 0-.032.866 12.009 12.009 0 0 0 2.833 7.758 12.2 12.2 0 0 0 2.272 2.09l-9.008 9.006h-17.472c-.812 0-1.478.666-1.478 1.48v1.476c0 .815.666 1.481 1.478 1.481h40.54c.812 0 1.477-.666 1.477-1.48v-1.478c0-.813-.665-1.479-1.477-1.479Zm-30.842-34.442-1.718 14.877-26.885-26.885 14.93-1.759 11-10.995c1.59-1.454 3.8-2.375 6.27-2.375 0-.004 0-.004.043 0a9.88 9.88 0 0 1 9.777 9.723v.096a9.29 9.29 0 0 1-1.105 4.427 9.396 9.396 0 0 1-1.349 1.896l-10.963 10.995Zm31.395 15.588a7.649 7.649 0 0 0-7.64-7.641 7.648 7.648 0 0 0-7.639 7.641 7.65 7.65 0 0 0 7.639 7.64 7.652 7.652 0 0 0 7.64-7.64Z" fill="rgba(16, 202, 183, 1)" fill-rule="evenodd" data-name="Composite Path"/></svg>