<svg xmlns="http://www.w3.org/2000/svg" width="62.406" height="72.645" viewBox="282 92 62.406 72.645"><path d="M325.973 164.645h-25.546a1.418 1.418 0 0 1-1.417-1.419v-1.007a1.419 1.419 0 0 1 1.417-1.417h10.852l.002-6.609a33.386 33.386 0 0 1-29.28-33.17 33.177 33.177 0 0 1 16.196-28.621l.292-.173.032-.02.136-.075c.233-.089.47-.134.7-.134a1.262 1.262 0 0 1 .002 0 1.94 1.94 0 0 1 1.938 1.938 1.929 1.929 0 0 1-.771 1.545l-.368.218a29.958 29.958 0 0 0-4.442 3.296l3.236 3.24a24.93 24.93 0 0 1 16.48-6.205 25.024 25.024 0 0 1 24.986 24.99 24.908 24.908 0 0 1-6.203 16.476l3.24 3.24a29.988 29.988 0 0 0 3.279-4.423l.075-.122.094-.154a2.112 2.112 0 0 1 .684-.587 1.872 1.872 0 0 1 .88-.219c1.07 0 1.94.868 1.94 1.936a1.966 1.966 0 0 1-.135.702l-.149.26-.12.208a33.193 33.193 0 0 1-28.571 16.114 7.94 7.94 0 0 1-.065 0c-.082 0-.164-.003-.244-.004v6.353h10.85a1.419 1.419 0 0 1 1.42 1.417v1.007a1.418 1.418 0 0 1-1.42 1.42ZM293.02 101.74a29.47 29.47 0 0 0-7.179 19.271 27.446 27.446 0 0 0 0 .013c.031 16.284 13.303 29.556 29.59 29.584a29.446 29.446 0 0 0 19.282-7.178l-3.25-3.248a25.014 25.014 0 0 1-16.031 5.83 25.02 25.02 0 0 1-24.988-24.988 24.993 24.993 0 0 1 5.826-16.036l-3.25-3.248Zm22.412-1.86a21.217 21.217 0 0 0-21.145 21.144c.022 11.637 9.506 21.121 21.145 21.142 11.638-.02 21.122-9.505 21.142-21.142a21.215 21.215 0 0 0-21.142-21.144Z" fill="rgba(16, 202, 183, 1)" fill-rule="evenodd" data-name="Composite Path"/></svg>